<?xml version="1.0" encoding="UTF-8"?>
<svg id="Layer_2" data-name="Layer 2" xmlns="http://www.w3.org/2000/svg" viewBox="0 0 516.31 500">
  <defs>
    <style>
      .cls-1 {
        fill: #0E0048;
      }
    </style>
  </defs>
  <g id="Layer_1-2" data-name="Layer 1">
    <g>
      <path class="cls-1" d="M256.45,204.55c-72.54,0-145.07,.01-217.61-.02-6.79,0-14.25,1.37-20.21-.95-7.07-2.76-16.27-7.74-18.2-13.78-1.88-5.89,2.54-15.83,7.29-21.3,6.26-7.2,15.5-11.83,23.53-17.46C98.02,104.22,165.1,57.87,231.37,10.39c18.7-13.39,34.08-14.12,53.11-.51,70.6,50.51,141.99,99.91,213.09,149.72,2.47,1.73,5.89,2.94,7.24,5.31,4.52,7.93,13.5,18.66,11.1,23.89-3.35,7.31-15.23,14.64-23.75,14.99-38.47,1.59-77.04,.74-115.58,.75-40.05,.01-80.09,0-120.14,0Zm-186.36-37.66H446.64c-62.45-43.72-120.36-84.55-178.82-124.57-4.5-3.08-14.79-3.09-19.28,0-58.43,40.08-116.29,80.98-178.45,124.58Z"/>
      <path class="cls-1" d="M257.08,499.68c-76.31,0-152.61,.12-228.92-.13-11.81-.04-26.22,4.92-26.51-17.03-.28-20.92,12.27-18.4,25.23-18.39,154.88,.05,309.75,0,464.63,.11,9.93,0,21.78-3.59,23.06,13.46,1.27,16.86-4.8,22.45-21.79,22.3-78.57-.7-157.14-.31-235.71-.31Z"/>
      <path class="cls-1" d="M478.87,415.26v30.94c-8.54,.47-15.87,1.23-23.2,1.23-131.39,.07-262.79,.07-394.18,.04-27.97,0-28.44-.71-23.19-32.21H478.87Z"/>
      <path class="cls-1" d="M301.41,220.89q35.25-4.12,35.31,25.32c.01,45.37-.32,90.73,.09,136.1,.12,12.85-2.88,19.21-17.64,19.08-14.21-.12-18.12-5.3-17.99-18.75,.54-53.5,.22-107.01,.22-161.75Z"/>
      <path class="cls-1" d="M418.71,398.85V220.21h33.58c0,18.12,0,35.93,0,53.73,0,33.24,.02,66.47,0,99.71q-.03,29.31-33.57,25.2Z"/>
      <path class="cls-1" d="M186.93,398.63V223.36c28.88-10.35,33.27-7.5,33.3,21.56,.04,43.05,.04,86.09,0,129.14-.02,28.94-.53,29.32-33.31,24.57Z"/>
      <path class="cls-1" d="M69.55,309.73c.02-24.97,.56-49.95-.19-74.9-.41-13.72,6.08-16.36,17.99-16.32,11.29,.04,16.68,3.41,16.61,15.45-.31,50.69-.33,101.39-.02,152.08,.08,12.35-5.87,14.96-16.86,15.18-12.31,.25-18.08-3.33-17.74-16.58,.64-24.95,.18-49.93,.21-74.9Z"/>
    </g>
  </g>
</svg>
