<?xml version="1.0" encoding="UTF-8"?>
<svg id="Layer_2" data-name="Layer 2" xmlns="http://www.w3.org/2000/svg" viewBox="0 0 499.98 500">
  <defs>
    <style>
      .cls-1 {
        fill: #0E0048;
      }
    </style>
  </defs>
  <g id="Layer_1-2" data-name="Layer 1">
    <g>
      <path class="cls-1" d="M499.98,212.88v11.72c-2.37,9.94-6.9,18.64-13.58,26.49-34.34,40.42-68.51,80.97-102.6,121.6-1.68,2-2.81,5.14-2.83,7.75-.21,24.73,.01,49.46-.16,74.19-.19,26.28-19.08,45.26-45.37,45.29-96.65,.11-193.3,.13-289.95-.15-6.78-.02-14.1-1.56-20.21-4.42C7.75,487.14,.02,472.33,.02,453.25c0-89,0-178,0-267,0-46.53,.03-93.07-.02-139.6C-.01,31.03,5.16,17.64,18.27,8.79,24.4,4.66,32.09,2.86,39.08,0h247.05c13.16,2.04,23.08,9.5,32.33,18.56,15.11,14.79,30.49,29.31,45.98,43.7,11.3,10.49,16.56,23.17,16.49,38.57-.2,44.24-.07,88.49-.07,132.74v6.1c1.87-2.13,2.85-3.2,3.79-4.31,12.29-14.53,24.49-29.14,36.88-43.57,21.03-24.49,56.12-21.96,72.45,5.39,2.83,4.74,4.05,10.44,6.02,15.7Zm-148.43-95.7h-5.75c-20.67,0-41.35-.47-61.99,.16-14.51,.44-20.68-6.52-20.3-20.06,.59-20.81,.16-41.65,.16-62.48v-5.34c-1.56-.07-2.51-.15-3.46-.15-71.6,0-143.2-.02-214.8,.01-10.3,0-16.09,6.02-16.09,16.6-.02,136.04-.02,272.08,0,408.11,0,10.81,5.79,16.63,16.55,16.63,96.33,.02,192.67,.02,289,0,10.83,0,16.63-5.78,16.67-16.52,.05-13.34,.02-26.69,0-40.03,0-1.17-.25-2.33-.37-3.41-4.34,2.39-8.18,4.88-12.31,6.71-16.64,7.36-33.39,14.47-50.04,21.79-6.14,2.7-12.03,3.04-17.36-1.47-5.37-4.54-5.82-10.47-4.26-16.93,4.16-17.21,8.25-34.44,12.27-51.69,1.96-8.38,5.52-15.88,11.12-22.48,19.48-22.94,38.92-45.92,58.21-69.03,1.58-1.89,2.64-4.85,2.66-7.32,.19-26.36,.12-52.72,.12-79.08,0-24.4,0-48.81,0-74Zm65.02,125.79c-27.18,32.16-53.93,63.82-80.93,95.78,7.6,6.38,14.89,12.5,22.42,18.83,27.06-32.07,53.87-63.84,80.87-95.84-7.65-6.42-14.85-12.46-22.36-18.76Zm-68.27-155.28c-18.74-17.89-36.63-34.97-55.01-52.51v52.51h55.01Zm109.51,151.63c2.86-3.36,5.48-6.41,8.07-9.5,.83-.99,1.65-2.01,2.34-3.1,4.13-6.52,2.87-14.44-3.01-19.24-5.85-4.77-13.95-4.44-19.39,1.13-3.58,3.67-6.75,7.74-10.35,11.91,7.47,6.29,14.64,12.32,22.34,18.79Zm-155.34,161.61c12.32-6.87,28-7.54,36.47-21.14-7.51-6.31-14.73-12.36-22.08-18.53-11.91,10.75-9.96,26.24-14.39,39.67Z"/>
      <path class="cls-1" d="M190.78,176.75c37.59,0,75.18,0,112.78,0,1.63,0,3.26-.06,4.88,.07,7.8,.61,13.71,6.83,13.78,14.44,.08,7.8-5.96,14.17-14,14.73-1.13,.08-2.28,.05-3.42,.05-76.32,0-152.65,0-228.97,0-1.3,0-2.61,.03-3.9-.1-7.52-.79-13.22-6.99-13.3-14.41-.07-7.6,5.76-13.99,13.51-14.69,1.78-.16,3.58-.09,5.37-.09,37.75,0,75.51,0,113.26,0Z"/>
      <path class="cls-1" d="M189.94,293.93c-38.41,0-76.81,.03-115.22-.02-11.46-.02-18.76-9.42-15.19-19.39,2.13-5.95,6.56-9.11,12.77-9.79,1.61-.18,3.25-.08,4.88-.08,75.51,0,151.02,0,226.53,0,11.7,0,18.52,5.41,18.52,14.65,0,9.26-6.81,14.64-18.53,14.64-37.92,0-75.84,0-113.75,0Z"/>
      <path class="cls-1" d="M146.21,117.18c-23.92,0-47.84,.06-71.77-.03-11.52-.04-18.89-10.16-14.68-20.1,2.71-6.38,7.88-9.18,14.74-9.17,23.76,.03,47.52,0,71.28,0,24.25,0,48.49-.06,72.74,.03,11.52,.04,18.89,10.16,14.68,20.1-2.71,6.39-7.89,9.18-14.74,9.17-24.08-.02-48.17,0-72.25,0Z"/>
      <path class="cls-1" d="M146.08,381.81c-23.92,0-47.84,.07-71.76-.03-11.28-.05-18.45-9.87-14.69-19.78,2.18-5.74,7.38-9.35,14.05-9.44,8.46-.12,16.92-.04,25.39-.04,39.71,0,79.41-.03,119.12,.02,11.67,.02,19.01,9.7,15.18,19.79-2.29,6.03-7.59,9.45-15.03,9.47-24.08,.04-48.17,.01-72.25,.01Z"/>
    </g>
  </g>
</svg>
