<svg xmlns="http://www.w3.org/2000/svg" width="384" height="512.1" viewBox="0 0 384 512.1">
  <defs>
    <style>
      .cls-1 {
        fill: #0e0048;
      }
    </style>
  </defs>
  <path id="file-word-regular" class="cls-1" d="M369.9,97.9,286,14A48,48,0,0,0,252.1-.1H48A48.162,48.162,0,0,0,0,48V464a48.012,48.012,0,0,0,48,48H336a48.012,48.012,0,0,0,48-48V131.9a48.234,48.234,0,0,0-14.1-34ZM332.1,128H256V51.9ZM48,464V48H208V152a23.942,23.942,0,0,0,24,24H336V464ZM268.1,256a11.9,11.9,0,0,0-11.7,9.5c-20.6,97.7-20.4,95.4-21,103.5-.2-1.2-.4-2.6-.7-4.3-.8-5.1.3.2-23.6-99.5a11.992,11.992,0,0,0-11.7-9.2H186.1a12.186,12.186,0,0,0-11.7,9.1c-24.4,99-24,96.2-24.8,103.7-.1-1.1-.2-2.5-.5-4.2-.7-5.2-14.1-73.3-19.1-99a12.01,12.01,0,0,0-11.8-9.7H101.4a12.023,12.023,0,0,0-11.7,14.8c8,32.6,26.7,109.5,33.2,136a11.9,11.9,0,0,0,11.7,9.1h25.2a11.874,11.874,0,0,0,11.6-9.1l17.9-71.4a123.49,123.49,0,0,0,3-17.3l2.9,17.3c.1.4,12.6,50.5,17.9,71.4a11.983,11.983,0,0,0,11.6,9.1h24.7a11.874,11.874,0,0,0,11.6-9.1c20.8-81.9,30.2-119,34.5-136a11.956,11.956,0,0,0-11.6-14.9H268.1Z" transform="translate(0 0.1)"/>
</svg>
