<svg xmlns="http://www.w3.org/2000/svg" width="384" height="512.1" viewBox="0 0 384 512.1">
  <defs>
    <style>
      .cls-1 {
        fill: #0e0048;
      }
    </style>
  </defs>
  <path id="file-pdf-regular" class="cls-1" d="M369.9,97.9,286,14A48,48,0,0,0,252.1-.1H48A48.162,48.162,0,0,0,0,48V464a48.012,48.012,0,0,0,48,48H336a48.012,48.012,0,0,0,48-48V131.9a48.234,48.234,0,0,0-14.1-34ZM332.1,128H256V51.9ZM48,464V48H208V152a23.942,23.942,0,0,0,24,24H336V464ZM298.2,320.3c-12.2-12-47-8.7-64.4-6.5-17.2-10.5-28.7-25-36.8-46.3,3.9-16.1,10.1-40.6,5.4-56-4.2-26.2-37.8-23.6-42.6-5.9-4.4,16.1-.4,38.5,7,67.1-10,23.9-24.9,56-35.4,74.4-20,10.3-47,26.2-51,46.2-3.3,15.8,26,55.2,76.1-31.2,22.4-7.4,46.8-16.5,68.4-20.1,18.9,10.2,41,17,55.8,17C306.2,359,308.7,330.8,298.2,320.3ZM100.1,398.1c5.1-13.7,24.5-29.5,30.4-35-19,30.3-30.4,35.7-30.4,35Zm81.6-190.6c7.4,0,6.7,32.1,1.8,40.8C179.1,234.4,179.2,207.5,181.7,207.5ZM157.3,344.1c9.7-16.9,18-37,24.7-54.7,8.3,15.1,18.9,27.2,30.1,35.5C191.3,329.2,173.2,338,157.3,344.1Zm131.6-5s-5,6-37.3-7.8C286.7,328.7,292.5,336.7,288.9,339.1Z" transform="translate(0 0.1)"/>
</svg>
