<?xml version="1.0" encoding="UTF-8"?>
<svg id="Layer_2" data-name="Layer 2" xmlns="http://www.w3.org/2000/svg" viewBox="0 0 404.9 500">
  <defs>
    <style>
      .cls-1 {
        fill: #0E0048;
      }
    </style>
  </defs>
  <g id="Layer_1-2" data-name="Layer 1">
    <g>
      <path class="cls-1" d="M238.53,416.97c-.1-44.03,33.67-81.06,78.78-83.37,48.18-2.46,84.53,34.5,87.4,76.97,3.31,49.05-34,87.78-80,89.37-46.7,1.62-85.78-34.88-86.17-82.98Zm71.27-.89c-4.08-3.8-8.89-8.17-13.56-12.67-2.31-2.23-4.33-2.49-6.64-.04-4.23,4.5-8.56,8.91-12.87,13.33-2.4,2.46-2.25,4.67,.21,7.09,9.72,9.61,19.35,19.29,29,28.96,2.71,2.72,5.24,3.18,8.25,.18,17.28-17.22,34.65-34.34,52.01-51.48,3.19-3.15,3.13-6.06-.09-9.18-3.27-3.17-6.32-6.55-9.5-9.8-5.74-5.86-5.97-5.78-11.94,.01-11.54,11.2-23.15,22.31-34.88,33.6Z"/>
      <path class="cls-1" d="M82.95,46.13c-.88,8.46-1.67,16.01-2.5,23.97-12.77,0-25.12,.07-37.46-.03-5.58-.04-10.62,1.2-14.94,4.87-5.47,4.65-7.63,10.6-7.61,17.72,.09,37.94,.04,75.89,.04,113.83,0,76.05,0,152.11,0,228.16,0,11.35,5.6,19.46,15.48,22.03,2.77,.72,5.79,.71,8.69,.72,56.5,.04,113,.07,169.5-.06,3.98,0,6.02,1.09,7.58,4.85,2.22,5.35,5.29,10.35,8.38,16.22h-5.51c-65.78,0-131.57,0-197.35,0-17.51,0-27.25-9.72-27.25-27.18C0,325.34,0,199.46,0,73.57c0-17.7,9.78-27.43,27.52-27.44,16.45,0,32.89,0,49.34,0h6.09Z"/>
      <path class="cls-1" d="M144.34,34.13c3.43-17.1,12.12-29,28.76-33.09,19.77-4.86,39.09,7.67,43.89,28.09,.93,3.95,2.46,4.82,6.14,4.76,8.3-.16,16.6,.29,24.9,.18,4.5-.06,6.55,1.46,6.49,6.21-.17,13.19-.17,26.38,0,39.57,.06,4.74-1.97,6.22-6.48,6.21-42.98-.09-85.96-.1-128.94,0-4.65,.01-6.44-1.79-6.4-6.34,.12-13.19,.1-26.38,.01-39.57-.03-4.32,1.73-6.18,6.16-6.08,8.43,.19,16.87,.05,25.47,.05Zm20.24,8.83c-.2,8.79,7.75,17.13,16.43,17.22,7.64,.08,16.54-8.96,16.63-16.89,.11-9.27-7.14-17.15-16.14-17.52-8.9-.37-16.7,7.55-16.92,17.2Z"/>
      <path class="cls-1" d="M367.17,316.05c-6.51-2.13-12.51-4.03-18.45-6.13-.79-.28-1.55-1.49-1.74-2.4-.3-1.4-.1-2.91-.1-4.38,0-69.85,0-139.71,0-209.56,0-11.81-5.07-19.59-14.88-22.51-2.59-.77-5.44-.91-8.17-.94-11.23-.1-22.47-.04-33.7-.04-1.74,0-3.49,0-5.5,0v-23.56c1.32-.15,2.42-.39,3.52-.39,18.07-.02,36.14-.17,54.21,.03,14.55,.17,24.96,10.67,24.97,25.11,.06,80.44,.03,160.87,.02,241.31,0,.97-.1,1.93-.18,3.45Z"/>
      <path class="cls-1" d="M183.45,254.94c-35.97,0-71.94,.01-107.91-.01-6.28,0-9.99-2.51-10.7-7.05-.78-4.97,1.98-9.07,6.96-10.05,1.73-.34,3.56-.28,5.35-.28,70.97-.01,141.93-.01,212.9,0,1.62,0,3.27-.06,4.87,.18,4.81,.72,7.66,4,7.63,8.6-.03,4.5-3.06,7.89-7.76,8.53-1.44,.19-2.92,.09-4.39,.09-35.65,0-71.29,0-106.94,0Z"/>
      <path class="cls-1" d="M160.5,306.83c-27.99,0-55.97,0-83.96-.01-1.78,0-3.65,.13-5.33-.34-4-1.11-6.37-3.78-6.44-8.1-.07-4.27,1.96-7.19,6.1-8.27,2.01-.52,4.17-.61,6.27-.61,55.65-.03,111.29-.02,166.94-.02,.65,0,1.3-.01,1.95,0,6.77,.14,10.62,3.33,10.63,8.78,.01,5.38-3.95,8.57-10.74,8.57-28.47,.01-56.95,0-85.42,0Z"/>
      <path class="cls-1" d="M240.63,341.8c-4.02,5.39-7.54,10.46-11.49,15.18-.97,1.16-3.32,1.61-5.04,1.62-33.7,.09-67.4,.07-101.09,.07-15.95,0-31.91,.02-47.86,0-6.62,0-10.28-2.97-10.39-8.3-.11-5.51,3.36-8.86,9.88-8.87,54.54-.06,109.07-.03,163.61-.02,.62,0,1.24,.16,2.39,.32Z"/>
      <path class="cls-1" d="M213.85,394.03c-.7,5.42-1.37,10.7-2.07,16.16-1.3,.13-2.39,.33-3.49,.33-44.74,.02-89.48,0-134.22,.03-3.94,0-7.05-1.24-8.62-5.05-1.42-3.45-1.17-6.91,1.76-9.36,1.61-1.35,4.01-2.46,6.06-2.46,46.2-.13,92.41-.1,138.61-.07,.62,0,1.23,.26,1.97,.42Z"/>
      <path class="cls-1" d="M291.44,184.51h-13.46v-50.39h-12.47c-2.03,10.81-3.96,21.51-6.1,32.16-.67,3.32-1.69,6.63-2.98,9.76-2.91,7.08-9.57,10.5-16.93,9.37-3.44-.53-5.36-1.72-4.76-5.59,.29-1.88,.05-3.85,.05-5.77,8.06-.26,9.04-.49,10.84-8.37,2.97-12.98,5.19-26.12,7.71-39.2,.24-1.25,.41-2.52,.66-4.05h37.44v62.08Z"/>
      <path class="cls-1" d="M182.37,171.05c20.53,6.04,31.5,1.95,32.62-12.43h-23.82v-11.03h23.88c-1.71-13.77-9.82-16.65-32.65-12.08-.1-.3-.3-.6-.3-.9,.23-12.4-2.75-11.16,10.76-13.02,16.18-2.23,29.25,3.67,34.55,15.91,4.53,10.44,4.64,21.28-.09,31.7-5.23,11.52-15.15,15.94-27.21,16.41-2.42,.09-4.89-.12-7.28-.51-13.03-2.14-11.01-1.46-10.47-14.04Z"/>
      <path class="cls-1" d="M135.3,158.72v-11h23.81c-1.74-14.16-12.35-18.02-32.92-11.91,0-3.49-.21-6.81,.13-10.07,.1-1.01,1.56-2.42,2.64-2.71,8.8-2.31,17.68-2.81,26.44,.09,8.77,2.9,15.25,8.75,17.25,17.74,1.49,6.67,2.14,13.98,1.07,20.68-2.43,15.18-13.75,23.79-29.76,24.08-2.26,.04-4.56-.13-6.8-.49-13.27-2.11-11.18-1.57-10.62-13.99,9.24,2.77,18.77,5.72,27.25-.99,2.96-2.35,4.27-6.79,7-11.42h-25.47Z"/>
      <path class="cls-1" d="M83.11,158.32v-10.79c3.07,0,6.15,.38,9.09-.11,2.76-.47,6.09-1.18,7.82-3.05,1.53-1.65,2.22-5.4,1.42-7.52-.78-2.06-3.96-4.56-6.05-4.52-5.85,.1-11.67,1.4-18.08,2.31,0-1.75-.28-4.47,.12-7.09,.19-1.27,1.4-2.95,2.56-3.42,8.07-3.22,16.39-4.04,24.83-1.52,7.13,2.13,11.1,6.77,11.74,13.41,.6,6.26-2.83,11.76-9.42,15.1-.54,.27-1.07,.56-2.07,1.08,1.14,.47,1.83,.82,2.56,1.04,5.76,1.79,9.75,5.3,10.48,11.52,.81,6.81-1.19,12.63-7.22,16.46-6.63,4.21-14.1,4.57-21.65,4.32-1.13-.04-2.26-.28-3.39-.42-11.52-1.45-11.99-2.08-10.52-12.87,6.65,.85,13.26,2.27,19.88,2.38,6.21,.1,9.35-3.96,8.61-9.33-.55-4.02-3.99-6.7-9.31-6.95-3.7-.17-7.41-.03-11.4-.03Z"/>
    </g>
  </g>
</svg>
