<svg id="Component_1_1" data-name="Component 1 – 1" xmlns="http://www.w3.org/2000/svg" width="36" height="40" viewBox="0 0 36 40">
  <defs>
    <style>
      .cls-1 {
        fill: #0f0048;
      }
    </style>
  </defs>
  <path id="Path_1" data-name="Path 1" class="cls-1" d="M8,28H22v4H8Zm0-8H28v4H8Zm0-8H28v4H8ZM32,4H23.64A5.976,5.976,0,0,0,12.36,4H4a3.5,3.5,0,0,0-.8.08A4.041,4.041,0,0,0,.32,6.46,3.853,3.853,0,0,0,0,8V36a4.1,4.1,0,0,0,.32,1.56,4.239,4.239,0,0,0,.86,1.28,4.016,4.016,0,0,0,2.02,1.1A5.19,5.19,0,0,0,4,40H32a4.012,4.012,0,0,0,4-4V8A4.012,4.012,0,0,0,32,4ZM18,3.5A1.5,1.5,0,1,1,16.5,5,1.511,1.511,0,0,1,18,3.5ZM32,36H4V8H32Z"/>
</svg>
